<?xml version="1.0" encoding="UTF-8"?>
<svg id="Layer_2" data-name="Layer 2" xmlns="http://www.w3.org/2000/svg" viewBox="0 0 484.04 137.17">
  <defs>
    <style>
      .cls-1 {
        fill: #519280;
      }

      .cls-2 {
        fill: #134668;
      }

      .cls-3 {
        fill: #3d739e;
      }

      .cls-4 {
        fill: #c2ab81;
      }
    </style>
  </defs>
  <g id="Layer_1-2" data-name="Layer 1">
    <g>
      <g>
        <polygon class="cls-3" points="95.03 137.17 95.03 122.04 95.03 106.91 116.1 106.91 137.17 106.91 137.17 122.04 137.17 137.17 116.1 137.17 95.03 137.17"/>
        <polygon class="cls-3" points="95.03 101.53 95.03 86.4 95.03 71.27 116.1 71.27 137.17 71.27 137.17 86.4 137.17 101.53 116.1 101.53 95.03 101.53"/>
      </g>
      <g>
        <path class="cls-4" d="M118.79,65.9v-21.07c0-18.24,7.15-34.72,18.38-42.76v63.83h-18.38Z"/>
        <path class="cls-4" d="M116.1,25.2c-1.11-3.86-2.54-7.54-4.29-10.98-2.93-5.75-6.54-10.52-10.75-14.22h30.08c-4.21,3.69-7.82,8.46-10.75,14.22-1.75,3.44-3.19,7.12-4.29,10.98"/>
        <path class="cls-4" d="M95.03,65.9V2.07c11.23,8.03,18.38,24.51,18.38,42.76v21.07h-18.38Z"/>
        <path class="cls-1" d="M64.44,137.17c2.71-1.62,5.21-3.57,7.49-5.85,7.24-7.24,11.22-16.86,11.22-27.1s-3.99-19.86-11.22-27.1c-2.28-2.27-4.78-4.23-7.49-5.85h25.21v65.89h-25.21Z"/>
        <path class="cls-1" d="M47.52,71.38c7.78.62,15.05,3.99,20.61,9.54,6.22,6.22,9.65,14.5,9.65,23.3s-3.43,17.07-9.65,23.3c-5.56,5.56-12.83,8.92-20.61,9.54v-65.68Z"/>
        <polygon class="cls-3" points="71.27 65.9 71.27 32.95 71.27 0 80.46 0 89.65 0 89.65 32.95 89.65 65.9 80.46 65.9 71.27 65.9"/>
        <polygon class="cls-3" points="47.52 65.9 47.52 32.95 47.52 0 56.71 0 65.9 0 65.9 32.95 65.9 65.9 56.71 65.9 47.52 65.9"/>
        <polygon class="cls-4" points="0 71.27 42.14 71.27 42.14 125.9 21.07 73.22 0 125.9 0 71.27"/>
        <path class="cls-1" d="M42.14,65.79c-7.78-.62-15.05-3.99-20.61-9.54-5.56-5.56-8.91-12.83-9.54-20.61h30.15v30.15Z"/>
        <path class="cls-1" d="M42.14,13.34c-1.62-2.71-3.57-5.22-5.85-7.49C34.02,3.58,31.51,1.62,28.8,0h13.34v13.34Z"/>
        <polygon class="cls-4" points="1.28 137.17 21.07 87.7 40.86 137.17 1.28 137.17"/>
        <path class="cls-1" d="M0,30.26V0h9.19C17.99,0,26.26,3.43,32.49,9.65c5.56,5.56,8.92,12.83,9.54,20.61H0Z"/>
        <path class="cls-1" d="M0,65.9v-30.26h6.59c.64,9.21,4.56,17.84,11.13,24.41,2.28,2.28,4.78,4.23,7.49,5.85H0Z"/>
        <path class="cls-2" d="M184.26,33.96c.54,0,.99-.17,1.33-.52.34-.35.52-.78.52-1.3,0-.57-.18-1.01-.52-1.32-.35-.31-.79-.46-1.33-.46s-.96.15-1.32.46c-.36.31-.55.74-.57,1.28,0,.54.19.99.56,1.34.37.34.81.52,1.33.52"/>
        <path class="cls-2" d="M178.15,33.96c.47,0,.89-.17,1.26-.52.37-.35.55-.78.55-1.3,0-.57-.19-1.01-.55-1.32-.37-.31-.79-.46-1.26-.46-.54,0-.99.15-1.35.46-.36.31-.54.74-.54,1.28s.18.99.54,1.34c.36.34.81.52,1.35.52"/>
        <path class="cls-2" d="M230.89,33.74c.37.32.81.47,1.33.44.47,0,.89-.15,1.26-.46.37-.31.56-.76.56-1.35,0-.54-.19-.97-.56-1.3-.37-.32-.8-.47-1.3-.44-.49,0-.92.15-1.3.46-.37.31-.56.74-.56,1.28,0,.59.19,1.05.56,1.37"/>
        <path class="cls-2" d="M260.52,64.96c-.37.35-.56.78-.56,1.3,0,.54.19.97.56,1.3.37.32.81.48,1.33.48.47,0,.89-.16,1.26-.48.37-.32.56-.75.56-1.3s-.18-.95-.56-1.3c-.37-.35-.79-.52-1.26-.52-.52,0-.96.17-1.33.52"/>
        <path class="cls-2" d="M265.56,59.67v-20.33h-2.93v17.41h-15.74v-6.81c0-2.32-.42-4.26-1.28-5.82-.85-1.55-2.11-2.75-3.78-3.59-1.67-.84-3.72-1.26-6.17-1.26h-14.78v-1.89h-2.92v19.37h-29.52v-19.3h-2.93v1.82h-6.22c-2.39,0-4.47.42-6.22,1.28-1.76.85-3.11,2.05-4.08,3.59-.96,1.54-1.45,3.34-1.45,5.39s.48,3.9,1.45,5.42c.96,1.52,2.33,2.69,4.11,3.5,1.78.81,3.89,1.22,6.33,1.22h86.11ZM185.52,56.74h-6.81c-1.65,0-3.12-.29-4.39-.87-1.27-.58-2.26-1.42-2.96-2.52-.7-1.1-1.06-2.38-1.06-3.83s.35-2.78,1.06-3.91c.7-1.12,1.68-1.98,2.94-2.56,1.26-.58,2.73-.87,4.41-.87h6.81v14.56ZM243.96,56.74h-23.08v-14.56h14.97c2.59.03,4.59.65,6,1.87,1.41,1.22,2.11,3.05,2.11,5.46v7.22Z"/>
        <path class="cls-2" d="M300.26,34.48c.47,0,.89-.17,1.26-.52.37-.35.55-.78.55-1.3,0-.57-.19-1.01-.55-1.32-.37-.31-.79-.46-1.26-.46-.54,0-.99.15-1.35.46-.36.31-.54.74-.54,1.28s.18.99.54,1.34c.36.34.81.52,1.35.52"/>
        <path class="cls-2" d="M306.37,34.48c.54,0,.99-.17,1.33-.52.34-.35.52-.78.52-1.3,0-.57-.18-1.01-.52-1.32-.35-.31-.79-.46-1.33-.46s-.96.15-1.32.46c-.36.31-.55.74-.57,1.28,0,.54.19.99.56,1.34.37.34.81.52,1.33.52"/>
        <path class="cls-2" d="M322.66,59.67v-30.04h-2.92v27.11h-9.11v-17.48h-9.11c-2.34,0-4.41.42-6.2,1.28-1.79.85-3.16,2.05-4.11,3.59-.95,1.54-1.43,3.34-1.43,5.39s.49,3.9,1.46,5.42c.43.67.93,1.27,1.51,1.8h-17.75v-27.11h-2.89v30.04h50.55ZM301,56.74c-1.73,0-3.22-.29-4.46-.87-1.25-.58-2.22-1.42-2.93-2.52-.7-1.1-1.06-2.38-1.06-3.83s.34-2.78,1.02-3.91c.68-1.12,1.66-1.98,2.94-2.56,1.28-.58,2.78-.87,4.48-.87h6.74v14.56h-6.74Z"/>
        <polygon class="cls-2" points="332.81 29.63 331.37 29.63 329.92 29.63 329.92 44.65 329.92 59.67 331.37 59.67 332.81 59.67 332.81 44.65 332.81 29.63"/>
        <path class="cls-2" d="M379.63,33.74c.37.32.81.47,1.33.44.47,0,.89-.15,1.26-.46.37-.31.56-.76.56-1.35,0-.54-.19-.97-.56-1.3-.37-.32-.8-.47-1.3-.44-.49,0-.92.15-1.3.46-.37.31-.56.74-.56,1.28,0,.59.19,1.05.56,1.37"/>
        <path class="cls-2" d="M389.5,40.52c-1.67-.84-3.72-1.26-6.17-1.26h-14.7v-1.89h-2.89v24h-7.19c-2.84,0-5.02-.65-6.56-1.96-1.53-1.31-2.3-3.31-2.3-6v-11.56h-2.89v11.89c0,2.25.43,4.16,1.3,5.74.86,1.58,2.14,2.77,3.81,3.59,1.68.81,3.74,1.22,6.19,1.22h10.52v-4.63h25.96v-9.74c0-2.32-.43-4.26-1.3-5.82-.86-1.55-2.13-2.75-3.79-3.59M391.67,56.74h-23.04v-14.56h14.96c2.59.03,4.59.65,5.98,1.87,1.4,1.22,2.09,3.05,2.09,5.46v7.22Z"/>
        <path class="cls-2" d="M436.02,65c-.36.37-.54.79-.54,1.26,0,.54.18.97.54,1.3.36.32.81.48,1.35.48.47,0,.89-.16,1.26-.48.37-.32.55-.74.55-1.26s-.19-.92-.55-1.3c-.37-.37-.79-.56-1.26-.56-.54,0-.99.19-1.35.56"/>
        <path class="cls-2" d="M442.17,65c-.36.37-.55.79-.57,1.26,0,.54.18.97.55,1.3.37.32.81.48,1.34.48s.99-.16,1.33-.48c.34-.32.52-.74.52-1.26s-.17-.92-.52-1.3-.79-.56-1.33-.56-.96.19-1.32.56"/>
        <polygon class="cls-2" points="445.74 59.67 445.74 39.34 442.81 39.34 442.81 56.74 403.37 56.74 403.37 29.63 400.48 29.63 400.48 59.67 445.74 59.67"/>
        <path class="cls-2" d="M472.26,59.67v-30.04h-2.92v27.11h-8.96v-17.41h-2.93v20.07c0,2-.39,3.47-1.19,4.39-.79.92-2.01,1.39-3.66,1.39-.57,0-1.14-.02-1.7-.07-.57-.05-1.16-.12-1.78-.22l.19,2.48c1.18.3,2.41.45,3.66.45,1.7,0,3.09-.3,4.15-.89,1.06-.59,1.87-1.52,2.43-2.78.51-1.16.78-2.65.83-4.48h11.89Z"/>
        <polygon class="cls-2" points="482.41 29.63 480.96 29.63 479.52 29.63 479.52 44.65 479.52 59.67 480.96 59.67 482.41 59.67 482.41 44.65 482.41 29.63"/>
        <path class="cls-2" d="M182.57,95.31c1.34-.65,2.33-1.56,2.96-2.72.64-1.16.95-2.51.95-4.06v-.03c0-1.48-.31-2.77-.94-3.88-.62-1.11-1.6-1.98-2.95-2.61-1.34-.64-3.06-.95-5.14-.95h-10.38v26.13h2.8v-10.89h7l7.37,10.89h3.09l-7.43-11.07c1-.16,1.88-.43,2.65-.8M169.89,83.69h7.41c1.33,0,2.46.16,3.37.47.91.31,1.63.82,2.14,1.53.51.71.77,1.66.77,2.84v.03c0,1.22-.24,2.21-.74,2.95-.49.74-1.2,1.28-2.13,1.61-.93.33-2.06.5-3.42.5h-7.41v-9.92Z"/>
        <polygon class="cls-2" points="192.9 107.18 194.31 107.18 195.73 107.18 195.73 94.12 195.73 81.05 194.31 81.05 192.9 81.05 192.9 94.12 192.9 107.18"/>
        <polygon class="cls-2" points="220.44 81.05 212.62 94.01 204.75 81.05 201.31 81.05 211.1 96.97 211.1 107.18 213.91 107.18 213.91 96.97 223.76 81.05 220.44 81.05"/>
        <path class="cls-2" d="M232.92,81.05l-10.5,26.13h2.93l3.17-8.09h12.31l3.17,8.09h2.96l-10.63-26.13h-3.41ZM234.65,83.82l5.22,12.79h-10.41l5.19-12.79Z"/>
        <path class="cls-2" d="M267.57,82.63c-2.03-1.05-4.46-1.58-7.3-1.58h-8.05v26.13h8.05c2.81,0,5.24-.53,7.28-1.59,2.04-1.06,3.58-2.58,4.62-4.56,1.04-1.98,1.56-4.3,1.56-6.96v-.03c0-2.64-.52-4.94-1.56-6.89-1.04-1.95-2.58-3.46-4.61-4.51M270.84,94.07c0,2.15-.42,4.01-1.27,5.59-.85,1.58-2.07,2.79-3.67,3.62-1.6.84-3.48,1.26-5.65,1.26h-5.19v-20.85h5.19c2.19,0,4.09.41,5.69,1.24,1.6.83,2.82,2.02,3.66,3.58.84,1.56,1.26,3.39,1.26,5.49v.07Z"/>
        <polygon class="cls-2" points="297.42 92.39 282.73 92.39 282.73 81.05 279.89 81.05 279.89 107.18 282.73 107.18 282.73 95.07 297.42 95.07 297.42 107.18 300.26 107.18 300.26 81.05 297.42 81.05 297.42 92.39"/>
        <polygon class="cls-2" points="333.22 92.39 318.53 92.39 318.53 81.05 315.69 81.05 315.69 107.18 318.53 107.18 318.53 95.07 333.22 95.07 333.22 107.18 336.05 107.18 336.05 81.05 333.22 81.05 333.22 92.39"/>
        <path class="cls-2" d="M362.89,82.42c-2.08-1.17-4.42-1.76-7.02-1.76s-4.97.58-7.04,1.76c-2.07,1.17-3.69,2.77-4.87,4.82-1.17,2.04-1.76,4.32-1.76,6.83v.03c0,2.56.59,4.86,1.76,6.89,1.17,2.04,2.8,3.64,4.88,4.8,2.08,1.16,4.44,1.74,7.06,1.74s4.91-.58,6.99-1.74c2.08-1.16,3.71-2.77,4.88-4.82,1.17-2.05,1.76-4.35,1.76-6.88v-.03c0-2.51-.59-4.79-1.76-6.83-1.17-2.04-2.8-3.65-4.88-4.82M366.6,94.13c0,2.15-.48,4.03-1.43,5.64-.96,1.61-2.26,2.87-3.92,3.79-1.65.91-3.44,1.37-5.35,1.37s-3.8-.45-5.42-1.35c-1.61-.9-2.91-2.17-3.9-3.8-.99-1.63-1.48-3.51-1.48-5.64v-.07c0-2.13.49-4,1.47-5.62.98-1.62,2.27-2.89,3.9-3.8,1.62-.92,3.42-1.37,5.4-1.37s3.78.45,5.41,1.34c1.63.89,2.92,2.15,3.88,3.79.95,1.63,1.43,3.52,1.43,5.67v.07Z"/>
        <polygon class="cls-2" points="378.55 81.05 375.71 81.05 375.71 107.18 392.25 107.18 392.25 104.54 378.55 104.54 378.55 81.05"/>
        <path class="cls-2" d="M412.95,82.63c-2.03-1.05-4.46-1.58-7.3-1.58h-8.05v26.13h8.05c2.81,0,5.24-.53,7.28-1.59,2.04-1.06,3.58-2.58,4.62-4.56,1.04-1.98,1.56-4.3,1.56-6.96v-.03c0-2.64-.52-4.94-1.56-6.89-1.04-1.95-2.58-3.46-4.61-4.51M416.22,94.07c0,2.15-.42,4.01-1.27,5.59-.85,1.58-2.07,2.79-3.67,3.62-1.6.84-3.48,1.26-5.65,1.26h-5.19v-20.85h5.19c2.19,0,4.09.41,5.69,1.24,1.6.83,2.82,2.02,3.66,3.58.84,1.56,1.26,3.39,1.26,5.49v.07Z"/>
        <polygon class="cls-2" points="425.27 107.18 426.69 107.18 428.11 107.18 428.11 94.12 428.11 81.05 426.69 81.05 425.27 81.05 425.27 94.12 425.27 107.18"/>
        <polygon class="cls-2" points="452.21 103.74 438.83 81.05 434.81 81.05 434.81 107.18 437.61 107.18 437.61 84.34 450.98 107.18 455.01 107.18 455.01 81.05 452.21 81.05 452.21 103.74"/>
        <path class="cls-2" d="M474.12,93.84v2.32h7.18v6.94c-.86.56-1.8.99-2.81,1.29-1.18.36-2.4.53-3.67.53-1.96,0-3.75-.43-5.38-1.29-1.64-.86-2.94-2.1-3.9-3.72-.96-1.62-1.45-3.55-1.45-5.78v-.03c0-2.28.49-4.22,1.45-5.85.97-1.62,2.27-2.86,3.9-3.71,1.63-.85,3.42-1.27,5.38-1.27,1.5,0,2.92.21,4.24.65,1.32.43,2.49,1.02,3.53,1.77l1.16-2.45c-1.4-.9-2.84-1.56-4.32-1.96-1.48-.41-3.02-.61-4.6-.61-2.65,0-5,.57-7.06,1.72-2.06,1.15-3.68,2.74-4.87,4.77-1.18,2.03-1.77,4.34-1.77,6.91v.07c0,2.6.58,4.92,1.74,6.96,1.16,2.04,2.78,3.62,4.87,4.75,2.08,1.13,4.44,1.69,7.06,1.69,1.63,0,3.27-.23,4.91-.69,1.64-.46,3.09-1.09,4.33-1.89v-11.12h-9.92Z"/>
      </g>
    </g>
  </g>
</svg>